<svg height="52" viewBox="0 0 53 52" width="53" xmlns="http://www.w3.org/2000/svg"><g fill="none" transform="translate(7 6)"><path d="m36.0221 10.03325v-.0665c-.0136.0223-.0324.0446-.0442.0665z" fill="#000"/><g fill="#fff"><path d="m10 38h-10v-25h10z"/><path d="m4.97202585 10h-.05871279c-2.98105657 0-4.91331306-2.22274463-4.91331306-5.00099732 0-2.83923178 1.98873136-4.99900268 5.03021208-4.99900268 3.04213893 0 4.9116017 2.1597709 4.96978792 4.99900268 0 2.77825269-1.92764899 5.00099732-5.02797415 5.00099732z"/><path d="m40 38h-8.5167825v-13.5911365c0-3.413607-1.2305215-5.7437555-4.3130055-5.7437555-2.3540849 0-3.7529895 1.5689008-4.3692592 3.0886445-.2240064.5428549-.2825306 1.2974733-.2825306 2.058721v14.1875265h-8.5184222s.1141474-23.0204268 0-25.4036101h8.5184222v3.5997287c1.1317619-1.7270042 3.1514769-4.1961186 7.6757496-4.1961186 5.604826 0 9.8058282 3.6298734 9.8058282 11.4322249z"/></g></g></svg>