<svg height="46" viewBox="0 0 57 46" width="57" xmlns="http://www.w3.org/2000/svg"><path d="m17.9260698 46c21.5108737 0 33.2735081-17.6958778 33.2735081-33.04053 0-.5026235-.0103098-1.0029791-.0330141-1.5010726 2.2834406-1.63917686 4.2682013-3.68475379 5.8334362-6.01333895-2.0953407.92486798-4.3502811 1.54748532-6.7158056 1.82822952 2.4145445-1.43767961 4.2682013-3.71192412 5.1425907-6.42313506-2.2595026 1.33013412-4.7618269 2.29688866-7.4260333 2.81875263-2.1341004-2.25726614-5.1722305-3.66890554-8.5364024-3.66890554-6.4581637 0-11.6953761 5.20054262-11.6953761 11.6112217 0 .9112819.1026 1.7976631.3032436 2.6478141-9.7197336-.4856393-18.33822174-5.1065813-24.10553606-12.13308562-1.00435127 1.71615597-1.58347498 3.70965818-1.58347498 5.83674039 0 4.02889283 2.06455871 7.58572863 5.20414868 9.66639813-1.91863683-.0588649-3.72099559-.5818647-5.29649248-1.4523939-.00172148.0487223-.00172148.0962234-.00172148.1482962 0 5.6239191 4.03108126 10.3195761 9.38229372 11.3836823-.9826893.2660281-2.01668061.4086623-3.08372995.4086623-.7524075 0-1.48543501-.0735356-2.1979406-.2094234 1.48885309 4.61415 5.80607435 7.9717468 10.92472685 8.0657081-4.0025813 3.1153412-9.04485002 4.9707391-14.52488246 4.9707391-.9427913 0-1.87417876-.0532504-2.78960814-.1607503 5.17565252 3.2942077 11.3214525 5.2163909 17.9266743 5.2163909" fill="#fff" fill-rule="evenodd"/></svg>