<svg height="50" viewBox="0 0 50 50" width="50" xmlns="http://www.w3.org/2000/svg"><g fill="#fff"><path d="m16.2168931 49.903688c-3.4071856-.0983311-4.4773914-.1966622-6.0062567-.611838-2.40250268-.6446152-4.25898203-1.7153319-6.01717717-3.4634407-2.14041148-2.152359-3.37442422-4.6761912-3.85492476-7.8774155-.15288653-1.0488653-.33853447-7.9866723-.33853447-12.9469311 0-4.9602589.18564794-11.8980658.33853447-12.9469312.48050054-3.21214996 1.72543374-5.74690778 3.85492476-7.86648976 1.79095654-1.78088588 3.61467449-2.82975119 6.07177947-3.48529201 1.6489905-.42610153 2.315139-.49165561 6.6178029-.61183809 7.2184285-.19666225 19.0780554-.06555409 21.0655803.22943928 3.1996968.48072993 5.7223246 1.71533181 7.8736565 3.85676514 1.7691156 1.78088589 2.8174804 3.61640018 3.4727084 6.07467824.4258983 1.6497777.4914211 2.3162442.6115462 6.6209623.1965684 7.2218746.0655228 19.0871634-.2293298 21.0756372-.4805006 3.2012243-1.7145133 5.7250565-3.8549248 7.8774155-2.1513319 2.1414333-4.6739597 3.3760352-7.8736565 3.8567651-1.9329226.2949934-14.4477775.4151759-21.7317288.2185136zm15.0156418-4.6871168c5.0015737-.1092568 6.2683479-.2294393 7.9173384-.7757233 1.4415016-.4807299 2.2823775-.9942369 3.2870604-1.9993995 1.004683-1.0051626 1.5179449-1.84644 1.9984455-3.2886298.5678642-1.7153318.6661484-2.7641971.7862736-8.7186928.141966-6.5663339-.0109205-15.5909458-.2839322-17.4483114-.2074888-1.3438587-.7425917-3.01548779-1.2667741-3.90046789s-1.965684-2.31624422-2.8284009-2.79697415c-.9719215-.53535834-2.457105-1.01608827-3.8221634-1.2236762-2.9594464-.44795289-21.0655803-.44795289-24.0250268 0-1.3650583.20758793-2.8502418.68831786-3.82216334 1.2236762-.92823967.51350697-2.35882082 1.94477109-2.87208275 2.87345391-.53510287.97238553-1.01560341 2.45827803-1.22309228 3.82398813-.44773913 2.939008-.44773913 21.0974886 0 24.0364966.20748887 1.36571.68798941 2.8516025 1.22309228 3.8239881.51326193.9286828 1.94384308 2.3599469 2.87208275 2.8734539.99376244.546284 2.45710504 1.0160883 3.87676574 1.2236762 2.0202863.305919 10.6146936.4370272 18.1825771.273142z"/><path d="m23.9567054 37.9719517c-2.3172123-.3181022-3.2506864-.5923283-4.8211193-1.3930685-3.6789863-1.8757063-6.2927139-5.3858001-6.995565-9.4004699-.1866948-1.0530281-.1866948-3.3345891 0-4.3876172.4722281-2.6764465 1.6802535-4.9689765 3.6899683-6.9653423 1.9987329-2.0073349 4.293981-3.2139296 6.9736009-3.6855985 1.0542766-.1864737 3.3385428-.1864737 4.3928194 0 5.3702218.9433377 9.719113 5.2870788 10.6635692 10.6509408.1866948 1.0530281.1866948 3.3345891 0 4.3876172-.4612461 2.6435394-1.8669483 5.2651407-3.8107709 7.1408471-1.8669482 1.776985-4.1512143 2.9945487-6.5453009 3.4442795-.889546.1645356-2.9651531.2961642-3.5472017.2084118zm2.6906019-5.0018836c1.5265047-.2851951 2.943189-1.0420591 4.1292503-2.2267158 3.173812-3.1481153 3.173812-8.3474417 0-11.5284642-3.1847941-3.1810225-8.3683211-3.1810225-11.5531152 0-3.184794 3.1810225-3.184794 8.3474417.0109821 11.5284642 1.9548046 1.9634587 4.6014784 2.7532298 7.4128828 2.2267158z"/><path d="m37.1559249 14.9357507c-.8308198-.2731451-1.5038891-.8404465-1.9140406-1.5968483-.1998175-.3782009-.2418843-.6198293-.2418843-1.35522 0-.9980302.1156838-1.2921864.7572029-2.00656595.5994523-.6618516 1.3040717-.97701903 2.187475-.97701903 2.7764107-.02101116 4.1120324 3.36178588 2.0612746 5.22127378-.2313676.2101116-.5784189.4622455-.7677196.5567958-.3891182.199606-1.6616397.2941562-2.082308.1575837z"/></g></svg>